<svg width="59" height="70" viewBox="0 0 59 70" fill="none" xmlns="http://www.w3.org/2000/svg">
<path d="M29.4994 62.4642C44.8385 62.4642 57.2733 50.0294 57.2733 34.6903C57.2733 19.3513 44.8385 6.9165 29.4994 6.9165C14.1604 6.9165 1.72559 19.3513 1.72559 34.6903C1.72559 50.0294 14.1604 62.4642 29.4994 62.4642Z" fill="white"/>
<path fill-rule="evenodd" clip-rule="evenodd" d="M29.4996 7.45762C14.4594 7.45762 2.26695 19.6501 2.26695 34.6903C2.26695 49.7304 14.4594 61.9229 29.4996 61.9229C44.5398 61.9229 56.7322 49.7304 56.7322 34.6903C56.7322 19.6501 44.5398 7.45762 29.4996 7.45762ZM1.18457 34.6903C1.18457 19.0523 13.8616 6.37524 29.4996 6.37524C45.1376 6.37524 57.8146 19.0523 57.8146 34.6903C57.8146 50.3282 45.1376 63.0053 29.4996 63.0053C13.8616 63.0053 1.18457 50.3282 1.18457 34.6903Z" fill="#231815"/>
<path d="M20.3429 61.0462C20.1589 64.2934 22.3453 67.4323 24.6291 68.4713C27.8546 69.9326 32.0542 67.6487 33.6128 62.3884C30.2142 62.9945 24.8456 62.7889 20.3537 61.0354" fill="#F49E15"/>
<path fill-rule="evenodd" clip-rule="evenodd" d="M19.5687 60.289C19.8627 59.9803 20.325 59.8624 20.7467 60.027C25.0334 61.7004 30.1979 61.8977 33.4222 61.3227C33.7917 61.2568 34.1689 61.387 34.4191 61.6668C34.6692 61.9465 34.7566 62.3359 34.65 62.6958C32.995 68.2813 28.2621 71.3056 24.1818 69.4572L24.1802 69.4564C22.803 68.8298 21.5344 67.6167 20.637 66.1522C19.7346 64.6792 19.155 62.8668 19.2616 60.9849C19.2771 60.7127 19.3918 60.4696 19.5687 60.289ZM21.5257 62.5873C21.6899 63.4456 22.0266 64.2766 22.4829 65.0212C23.2035 66.1973 24.1696 67.0731 25.0759 67.4857C27.1665 68.4321 30.2642 67.3436 31.9697 63.6892C28.941 63.9449 25.0825 63.6784 21.5257 62.5873Z" fill="#231815"/>
<path d="M14.4439 56.7921C18.1322 56.7921 21.1222 53.8021 21.1222 50.1138C21.1222 46.4255 18.1322 43.4355 14.4439 43.4355C10.7556 43.4355 7.76562 46.4255 7.76562 50.1138C7.76562 53.8021 10.7556 56.7921 14.4439 56.7921Z" fill="#F3A89F"/>
<path fill-rule="evenodd" clip-rule="evenodd" d="M8.8947 5.50869C8.94298 4.91286 9.46513 4.46899 10.061 4.51727L9.97355 5.59611C10.061 4.51727 10.0606 4.51723 10.061 4.51727L10.0646 4.51757L10.0703 4.51805L10.0877 4.51959C10.1018 4.52088 10.1212 4.52272 10.1454 4.52519C10.1938 4.53013 10.2619 4.53761 10.3474 4.54833C10.5182 4.56975 10.7594 4.60422 11.0529 4.65741C11.6379 4.76343 12.4415 4.94576 13.3155 5.25272C15.0287 5.85441 17.1946 6.99988 18.363 9.17536C18.6459 9.70199 18.4483 10.3582 17.9216 10.641C17.395 10.9239 16.7388 10.7263 16.4559 10.1996C15.6653 8.7275 14.1132 7.82728 12.5982 7.29517C11.8581 7.03524 11.17 6.87865 10.6669 6.78747C10.4164 6.74207 10.2144 6.71336 10.078 6.69627C10.0099 6.68773 9.95844 6.68211 9.92569 6.67877L9.89096 6.67539L9.88613 6.67495C9.29061 6.62637 8.84644 6.10432 8.8947 5.50869Z" fill="#231815"/>
<path fill-rule="evenodd" clip-rule="evenodd" d="M17.3053 0.00502158C17.9003 -0.0520593 18.429 0.384051 18.4861 0.9791L19.2762 9.216C19.3333 9.81105 18.8972 10.3397 18.3021 10.3968C17.7071 10.4539 17.1784 10.0178 17.1213 9.42271L16.3312 1.18581C16.2741 0.590759 16.7102 0.0621025 17.3053 0.00502158Z" fill="#231815"/>
<path d="M19.4445 45.6868C20.5684 45.6868 21.4794 44.7758 21.4794 43.6519C21.4794 42.5281 20.5684 41.6171 19.4445 41.6171C18.3207 41.6171 17.4097 42.5281 17.4097 43.6519C17.4097 44.7758 18.3207 45.6868 19.4445 45.6868Z" fill="#231815"/>
<path d="M45.5074 54.9736C49.1957 54.9736 52.1857 51.9836 52.1857 48.2953C52.1857 44.607 49.1957 41.6171 45.5074 41.6171C41.8191 41.6171 38.8291 44.607 38.8291 48.2953C38.8291 51.9836 41.8191 54.9736 45.5074 54.9736Z" fill="#F3A89F"/>
<path d="M39.1123 45.4708C40.1166 45.4708 40.9307 44.6567 40.9307 43.6524C40.9307 42.6481 40.1166 41.834 39.1123 41.834C38.1081 41.834 37.2939 42.6481 37.2939 43.6524C37.2939 44.6567 38.1081 45.4708 39.1123 45.4708Z" fill="#231815"/>
<path fill-rule="evenodd" clip-rule="evenodd" d="M29.4998 7.99862C14.7585 7.99862 2.80831 19.9488 2.80831 34.6901C2.80831 49.4314 14.7585 61.3815 29.4998 61.3815C44.2411 61.3815 56.1912 49.4314 56.1912 34.6901C56.1912 19.9488 44.2411 7.99862 29.4998 7.99862ZM0.643555 34.6901C0.643555 18.7532 13.5629 5.83386 29.4998 5.83386C45.4366 5.83386 58.356 18.7532 58.356 34.6901C58.356 50.6269 45.4366 63.5463 29.4998 63.5463C13.5629 63.5463 0.643555 50.6269 0.643555 34.6901Z" fill="#231815"/>
</svg>
