<svg width="71" height="70" viewBox="0 0 71 70" fill="none" xmlns="http://www.w3.org/2000/svg">
<path d="M61.2084 65.625H9.79161C7.08201 65.625 4.875 63.4169 4.875 60.7059V31.1691C4.875 28.4581 7.08201 26.25 9.79161 26.25H61.2084C63.918 26.25 66.125 28.4581 66.125 31.1691V60.7059C66.125 63.4387 63.918 65.625 61.2084 65.625Z" fill="#00A6ED"/>
<path d="M51.6579 52.5H12.7796C12.0536 52.5 11.4375 51.9034 11.4375 51.1521V45.0979C11.4375 44.3687 12.0316 43.75 12.7796 43.75H51.6579C52.3839 43.75 53 44.3466 53 45.0979V51.1742C53 51.9034 52.4059 52.5 51.6579 52.5Z" fill="#F4F4F4"/>
<path d="M55.9601 61.25H59.8837C60.9229 61.25 61.75 60.4229 61.75 59.3837V55.4601C61.75 54.4209 60.9229 53.5938 59.8837 53.5938H55.9601C54.9209 53.5938 54.0938 54.4209 54.0938 55.4601V59.3837C54.0938 60.4017 54.9421 61.25 55.9601 61.25Z" fill="#FFF478"/>
<path d="M66.125 32.8125H4.875V39.375H66.125V32.8125Z" fill="#321B41"/>
<path d="M13.625 48.125C13.625 47.5209 14.1147 47.0312 14.7188 47.0312H38.7812C39.3853 47.0312 39.875 47.5209 39.875 48.125C39.875 48.7291 39.3853 49.2188 38.7812 49.2188H14.7188C14.1147 49.2188 13.625 48.7291 13.625 48.125Z" fill="#9B9B9B"/>
</svg>
