<svg width="70" height="70" viewBox="0 0 70 70" fill="none" xmlns="http://www.w3.org/2000/svg">
<path d="M24.519 58.6133C25.7495 58.6133 26.6724 58.02 28.1665 56.7017L35.7031 50.022H48.9966C55.6104 50.022 59.3237 46.2427 59.3237 39.7168V22.666C59.3237 16.1401 55.6104 12.3608 48.9966 12.3608H20.9814C14.3677 12.3608 10.6543 16.1401 10.6543 22.666V39.7168C10.6543 46.2427 14.4556 50.022 20.8276 50.022H21.7285V55.4492C21.7285 57.4048 22.7612 58.6133 24.519 58.6133ZM25.5957 53.7793V47.5171C25.5957 46.2207 25.0464 45.7153 23.7939 45.7153H21.0913C16.9385 45.7153 14.9609 43.6279 14.9609 39.585V22.7979C14.9609 18.7549 16.9385 16.6675 21.0913 16.6675H48.8647C53.0176 16.6675 55.0171 18.7549 55.0171 22.7979V39.585C55.0171 43.6279 53.0176 45.7153 48.8647 45.7153H35.4614C34.1431 45.7153 33.4839 45.9351 32.561 46.9019L25.5957 53.7793ZM32.6489 41.6284C33.4399 41.6284 34.1211 41.2549 34.5825 40.5298L44.4043 25.1709C44.6899 24.7095 44.9536 24.1821 44.9536 23.6987C44.9536 22.6001 43.9868 21.875 42.9541 21.875C42.2949 21.875 41.7017 22.2485 41.2402 22.9736L32.561 36.9043L28.4741 31.6968C27.9468 31.0156 27.4194 30.7739 26.7603 30.7739C25.6836 30.7739 24.8486 31.6528 24.8486 32.7295C24.8486 33.2568 25.0464 33.7402 25.4199 34.2017L30.6055 40.5518C31.1987 41.2988 31.8359 41.6284 32.6489 41.6284Z" fill="#FCC800"/>
</svg>
