<svg width="71" height="70" viewBox="0 0 71 70" fill="none" xmlns="http://www.w3.org/2000/svg">
<path d="M4.875 21.875C4.875 19.4588 6.83375 17.5 9.25 17.5H33.3125L37.6875 19.6875L42.0625 17.5H61.75C64.1662 17.5 66.125 19.4588 66.125 21.875V52.5C66.125 54.9162 64.1662 56.875 61.75 56.875H9.25C6.83376 56.875 4.875 54.9162 4.875 52.5V21.875Z" fill="#00F397"/>
<path d="M7.0625 24.0625C7.0625 21.6463 9.02125 19.6875 11.4375 19.6875H59.5625C61.9787 19.6875 63.9375 21.6463 63.9375 24.0625V50.3125C63.9375 52.7287 61.9787 54.6875 59.5625 54.6875H11.4375C9.02125 54.6875 7.0625 52.7287 7.0625 50.3125V24.0625ZM11.4375 21.875C10.2294 21.875 9.25 22.8544 9.25 24.0625V50.3125C9.25 51.5206 10.2294 52.5 11.4375 52.5H59.5625C60.7706 52.5 61.75 51.5206 61.75 50.3125V24.0625C61.75 22.8544 60.7706 21.875 59.5625 21.875H11.4375ZM4.875 61.25C4.875 63.6662 6.83376 65.625 9.25 65.625H33.3125L37.6875 63.4375L42.0625 65.625H61.75C64.1662 65.625 66.125 63.6662 66.125 61.25V52.5C66.125 54.9162 64.1662 56.875 61.75 56.875H9.25C6.83376 56.875 4.875 54.9162 4.875 52.5V61.25ZM57.375 37.1875C57.375 42.6241 52.9678 47.0312 47.5312 47.0312C42.0947 47.0312 37.6875 42.6241 37.6875 37.1875C37.6875 31.7509 42.0947 27.3438 47.5312 27.3438C52.9678 27.3438 57.375 31.7509 57.375 37.1875Z" fill="#008463"/>
<path d="M42.0625 17.5H33.3125V59.0625H42.0625V17.5Z" fill="#FFF478"/>
<path d="M42.0625 56.875H33.3125V65.625H42.0625V56.875Z" fill="#F3AD61"/>
<path d="M21.2812 26.25C21.8853 26.25 22.375 26.7397 22.375 27.3438V28.536C24.1989 28.8692 25.6933 30.0194 26.3658 31.5437C26.6492 32.1859 26.0975 32.8125 25.3956 32.8125C24.863 32.8125 24.415 32.4344 24.1126 31.996C23.5793 31.2228 22.5944 30.625 21.2812 30.625C19.2466 30.625 18 32.0603 18 33.3594C18 34.6584 19.2466 36.0938 21.2812 36.0938C24.3016 36.0938 26.75 38.2973 26.75 41.0156C26.75 43.3968 24.8712 45.383 22.375 45.839V47.0312C22.375 47.6353 21.8853 48.125 21.2812 48.125C20.6772 48.125 20.1875 47.6353 20.1875 47.0312V45.839C18.3636 45.5058 16.8693 44.3556 16.1967 42.8313C15.9133 42.1891 16.465 41.5625 17.1669 41.5625C17.6995 41.5625 18.1475 41.9406 18.4499 42.379C18.9832 43.1522 19.9681 43.75 21.2813 43.75C23.3159 43.75 24.5625 42.3147 24.5625 41.0156C24.5625 39.7166 23.3159 38.2812 21.2812 38.2812C18.2609 38.2812 15.8125 36.0777 15.8125 33.3594C15.8125 30.9782 17.6913 28.992 20.1875 28.536V27.3438C20.1875 26.7397 20.6772 26.25 21.2812 26.25Z" fill="white"/>
</svg>
