<svg width="71" height="70" viewBox="0 0 71 70" fill="none" xmlns="http://www.w3.org/2000/svg">
<path d="M20.1875 4.375C16.5631 4.375 13.625 7.31313 13.625 10.9375V15.3125H55.1875V10.9375C55.1875 7.31313 52.2494 4.375 48.625 4.375H20.1875Z" fill="#7167A4"/>
<path d="M20.1875 65.625C16.5631 65.625 13.625 62.6869 13.625 59.0625V54.6875H55.1875V59.0625C55.1875 62.6869 52.2494 65.625 48.625 65.625H20.1875Z" fill="#7167A4"/>
<path d="M13.625 13.125H55.1875V56.875H13.625V13.125Z" fill="#321B41"/>
<path d="M30.0312 21.875C30.0312 20.6669 31.0106 19.6875 32.2188 19.6875H36.5938C37.8019 19.6875 38.7812 20.6669 38.7812 21.875V26.25C38.7812 27.4581 37.8019 28.4375 36.5938 28.4375H32.2188C31.0106 28.4375 30.0312 27.4581 30.0312 26.25V21.875ZM19.0938 32.8125C19.0938 31.6044 20.0731 30.625 21.2812 30.625H25.6562C26.8644 30.625 27.8438 31.6044 27.8438 32.8125V37.1875C27.8438 38.3956 26.8644 39.375 25.6562 39.375H21.2812C20.0731 39.375 19.0938 38.3956 19.0938 37.1875V32.8125ZM32.2188 41.5625C31.0106 41.5625 30.0312 42.5419 30.0312 43.75V48.125C30.0312 49.3331 31.0106 50.3125 32.2188 50.3125H36.5938C37.8019 50.3125 38.7812 49.3331 38.7812 48.125V43.75C38.7812 42.5419 37.8019 41.5625 36.5938 41.5625H32.2188Z" fill="#00A6ED"/>
<path d="M19.0938 21.875C19.0938 20.6669 20.0731 19.6875 21.2812 19.6875H25.6562C26.8644 19.6875 27.8438 20.6669 27.8438 21.875V26.25C27.8438 27.4581 26.8644 28.4375 25.6562 28.4375H21.2812C20.0731 28.4375 19.0938 27.4581 19.0938 26.25V21.875ZM19.0938 43.75C19.0938 42.5419 20.0731 41.5625 21.2812 41.5625H25.6562C26.8644 41.5625 27.8438 42.5419 27.8438 43.75V48.125C27.8438 49.3331 26.8644 50.3125 25.6562 50.3125H21.2812C20.0731 50.3125 19.0938 49.3331 19.0938 48.125V43.75ZM43.1562 30.625C41.9481 30.625 40.9688 31.6044 40.9688 32.8125V37.1875C40.9688 38.3956 41.9481 39.375 43.1562 39.375H47.5312C48.7394 39.375 49.7188 38.3956 49.7188 37.1875V32.8125C49.7188 31.6044 48.7394 30.625 47.5312 30.625H43.1562Z" fill="#FF822D"/>
<path d="M40.9688 21.875C40.9688 20.6669 41.9481 19.6875 43.1562 19.6875H47.5312C48.7394 19.6875 49.7188 20.6669 49.7188 21.875V26.25C49.7188 27.4581 48.7394 28.4375 47.5312 28.4375H43.1562C41.9481 28.4375 40.9688 27.4581 40.9688 26.25V21.875ZM30.0312 32.8125C30.0312 31.6044 31.0106 30.625 32.2188 30.625H36.5938C37.8019 30.625 38.7812 31.6044 38.7812 32.8125V37.1875C38.7812 38.3956 37.8019 39.375 36.5938 39.375H32.2188C31.0106 39.375 30.0312 38.3956 30.0312 37.1875V32.8125ZM43.1562 41.5625C41.9481 41.5625 40.9688 42.5419 40.9688 43.75V48.125C40.9688 49.3331 41.9481 50.3125 43.1562 50.3125H47.5312C48.7394 50.3125 49.7188 49.3331 49.7188 48.125V43.75C49.7188 42.5419 48.7394 41.5625 47.5312 41.5625H43.1562Z" fill="#FCD53F"/>
</svg>
