<svg width="24" height="24" viewBox="0 0 24 24" fill="none" xmlns="http://www.w3.org/2000/svg">
<path fill-rule="evenodd" clip-rule="evenodd" d="M4.75 10.77C4.75 7.44524 7.44524 4.75 10.77 4.75C14.0947 4.75 16.79 7.44525 16.79 10.77C16.79 14.0948 14.0947 16.79 10.77 16.79C7.44524 16.79 4.75 14.0948 4.75 10.77ZM10.77 3.25C6.61681 3.25 3.25 6.61682 3.25 10.77C3.25 14.9232 6.61681 18.29 10.77 18.29C12.5765 18.29 14.2342 17.653 15.5308 16.5914L19.4697 20.5303C19.7626 20.8232 20.2374 20.8232 20.5303 20.5303C20.8232 20.2374 20.8232 19.7626 20.5303 19.4697L16.5914 15.5308C17.653 14.2342 18.29 12.5765 18.29 10.77C18.29 6.61682 14.9232 3.25 10.77 3.25Z" fill="#C1C1C1"/>
</svg>
